<?xml version="1.0" standalone="no"?>
<!DOCTYPE svg PUBLIC "-//W3C//DTD SVG 20010904//EN"
 "http://www.w3.org/TR/2001/REC-SVG-20010904/DTD/svg10.dtd">
<svg version="1.0" xmlns="http://www.w3.org/2000/svg"
 width="640.000000pt" height="640.000000pt" viewBox="0 0 640.000000 640.000000"
 preserveAspectRatio="xMidYMid meet">
<metadata>
Created by potrace 1.15, written by Peter Selinger 2001-2017
</metadata>
<g transform="translate(0.000000,640.000000) scale(0.100000,-0.100000)"
fill="#000000" stroke="none">
<path d="M1820 6242 c-731 -1 -1188 -6 -1194 -12 -10 -10 38 -80 56 -80 7 0
-3 16 -22 35 -19 19 -32 35 -29 35 3 0 25 -21 49 -47 25 -26 37 -41 27 -34
-37 29 -14 -7 35 -54 30 -28 38 -33 18 -12 -18 20 -32 37 -29 37 3 0 25 -21
49 -47 25 -26 36 -40 26 -32 -12 8 -18 9 -15 2 6 -17 303 -341 314 -342 5 -1
-9 18 -30 42 -33 35 -31 34 13 -8 48 -46 71 -73 37 -45 -8 7 -15 9 -15 5 0 -9
257 -290 301 -330 l34 -30 -30 35 -30 35 38 -34 c36 -34 47 -48 27 -36 -32 20
3 -23 98 -121 59 -61 96 -97 82 -80 -20 25 -16 23 18 -9 40 -37 59 -61 27 -35
-8 7 -15 9 -15 5 0 -13 344 -384 352 -379 5 3 7 1 6 -4 -2 -5 44 -62 101 -126
76 -85 107 -113 114 -104 6 10 8 9 4 -3 -4 -11 10 -31 36 -55 41 -39 42 -39
12 -4 -29 34 -28 33 13 -5 40 -37 59 -61 27 -35 -8 7 -15 8 -15 3 0 -5 21 -29
47 -53 38 -35 41 -37 18 -10 -29 34 -28 33 13 -5 40 -37 59 -61 27 -35 -8 7
-15 8 -15 3 0 -12 75 -85 81 -78 3 2 23 -14 45 -37 21 -23 31 -36 22 -29 -36
27 -16 -2 49 -74 37 -41 70 -72 75 -69 5 3 7 1 6 -4 -4 -14 193 -233 203 -227
4 3 11 0 15 -6 5 -8 3 -9 -7 -4 -8 4 2 -8 20 -28 41 -43 56 -50 20 -9 -15 17
-11 15 14 -7 36 -34 52 -56 22 -31 -8 7 -15 9 -15 5 0 -13 143 -164 151 -159
4 2 11 -1 15 -7 5 -8 3 -9 -7 -4 -8 5 -5 -1 5 -13 21 -24 31 -29 20 -9 -4 6
12 -6 35 -28 40 -38 56 -60 26 -35 -8 7 -15 8 -15 3 0 -5 21 -29 47 -53 26
-25 37 -32 23 -15 -23 27 -21 27 13 -4 36 -34 52 -56 22 -31 -34 28 -12 -6 41
-62 39 -43 52 -64 45 -71 -18 -18 -12 -31 7 -16 9 7 -1 -6 -23 -29 -46 -49
-62 -57 -19 -9 16 17 5 10 -24 -18 -49 -47 -72 -83 -34 -54 9 7 -1 -6 -23 -29
-40 -43 -51 -51 -40 -29 4 6 -36 -33 -89 -88 -88 -92 -122 -137 -78 -104 9 7
4 -1 -12 -19 -34 -36 -49 -44 -20 -9 11 12 5 9 -13 -7 -18 -16 -30 -33 -27
-37 2 -4 -1 -11 -7 -15 -8 -5 -10 -2 -4 7 4 8 -31 -26 -78 -76 -85 -89 -117
-136 -54 -79 24 21 22 18 -7 -13 -22 -23 -42 -40 -46 -38 -4 3 -44 -35 -89
-84 -77 -85 -101 -119 -63 -90 9 7 -1 -6 -22 -29 -22 -23 -42 -39 -45 -37 -6
7 -81 -66 -81 -78 0 -5 8 -3 18 4 9 7 1 -4 -17 -24 -40 -43 -56 -50 -20 -10
13 16 2 8 -24 -17 -45 -42 -66 -77 -29 -49 9 7 -1 -6 -23 -29 -46 -49 -62 -57
-19 -9 22 24 19 23 -13 -7 -26 -24 -40 -44 -36 -55 3 -11 2 -12 -4 -4 -6 9
-92 -79 -288 -294 -262 -286 -316 -349 -269 -313 10 8 1 -5 -21 -28 -44 -47
-62 -57 -24 -14 13 16 -27 -23 -88 -87 -102 -105 -142 -156 -95 -120 9 7 1 -4
-17 -24 -40 -43 -56 -50 -20 -9 13 15 5 9 -19 -12 -23 -22 -37 -43 -32 -46 5
-3 -16 -31 -48 -60 l-57 -55 50 54 c28 29 43 50 34 45 -9 -5 -67 -65 -130
-134 -62 -69 -180 -198 -263 -288 -142 -154 -185 -207 -140 -173 10 8 -1 -6
-26 -32 -24 -26 -46 -47 -49 -47 -3 0 11 17 29 38 28 29 25 27 -13 -8 -44 -42
-62 -70 -34 -54 6 4 -6 -12 -28 -35 -40 -42 -52 -51 -39 -28 4 6 -2 3 -14 -7
-24 -21 -29 -32 -10 -20 7 4 8 3 4 -5 -4 -6 -11 -9 -16 -6 -4 3 -22 -11 -39
-30 -27 -31 -29 -38 -19 -55 13 -20 27 -20 1193 -18 l1180 3 -1180 5 -1180 5
1175 3 1174 2 51 47 50 48 -45 -49 c-25 -27 -40 -47 -35 -45 14 5 115 114 115
124 0 4 -8 1 -17 -6 -10 -7 0 6 22 29 46 49 62 57 19 10 -29 -33 -28 -33 10 2
47 43 286 306 286 315 0 3 -6 3 -12 -1 -7 -4 9 16 37 45 27 28 51 51 54 51 3
0 -15 -21 -39 -46 -25 -26 -40 -45 -35 -43 14 6 125 124 125 134 0 4 -10 0
-22 -11 -13 -10 -5 0 16 23 22 23 42 40 46 38 7 -4 382 400 389 419 2 6 -4 4
-15 -4 -10 -8 -3 3 15 23 40 43 56 50 20 9 -13 -15 -2 -7 24 18 45 42 66 77
30 49 -10 -7 0 6 22 29 40 43 52 52 39 30 -4 -7 2 -4 14 6 24 21 29 32 10 20
-7 -4 -8 -3 -4 5 4 6 11 9 15 7 8 -5 151 146 151 159 0 4 -7 2 -15 -5 -28 -24
-15 -4 17 26 28 24 30 25 13 4 -17 -22 -15 -21 12 4 18 16 31 34 30 39 -1 6 4
11 10 12 18 0 213 217 206 229 -3 5 -2 6 4 3 5 -3 39 27 76 68 65 72 85 101
50 74 -10 -7 0 6 21 29 22 23 42 39 45 37 6 -7 81 66 81 78 0 5 -8 3 -17 -4
-10 -7 0 6 22 29 46 49 62 57 19 9 -16 -17 -7 -12 19 13 45 42 66 77 30 49
-10 -7 0 6 22 29 46 49 62 57 19 10 -22 -25 -19 -24 13 6 26 24 40 44 36 55
-4 12 -2 13 4 3 7 -9 38 19 114 104 57 64 103 121 102 125 -2 5 1 8 6 6 5 -1
69 63 142 143 72 80 181 197 240 262 102 109 138 155 87 112 -21 -17 -21 -16
1 9 26 28 37 36 25 15 -5 -9 -2 -9 9 1 22 17 22 35 0 52 -16 13 -17 12 -4 -4
8 -9 12 -19 10 -21 -2 -2 -13 8 -23 22 -11 14 -14 22 -8 18 34 -21 1 20 -96
120 -59 61 -96 97 -82 80 20 -25 16 -23 -18 9 -41 38 -58 61 -25 34 49 -41
-20 39 -272 314 -196 215 -282 303 -288 294 -6 -8 -7 -7 -4 4 4 11 -10 31 -36
55 -41 39 -42 39 -12 4 29 -34 28 -33 -13 5 -40 37 -59 61 -27 35 8 -7 15 -8
15 -3 0 5 -21 29 -47 53 -26 25 -37 32 -23 15 23 -27 21 -27 -13 4 -36 34 -52
56 -22 31 8 -7 15 -8 15 -3 0 12 -75 85 -81 78 -3 -2 -23 14 -45 37 -21 23
-31 36 -21 29 37 -29 13 5 -64 90 -45 49 -85 87 -89 84 -4 -2 -24 15 -46 38
-29 31 -31 34 -6 13 62 -57 30 -10 -55 79 -47 50 -82 84 -78 76 6 -9 4 -12 -4
-7 -6 4 -9 11 -7 15 3 4 -9 21 -27 37 -18 16 -24 19 -13 7 29 -35 14 -27 -20
9 -16 18 -21 26 -11 19 43 -33 9 12 -79 104 -53 55 -92 93 -88 85 4 -8 -12 3
-35 25 -40 38 -56 60 -26 35 8 -7 15 -9 15 -5 0 14 -143 164 -152 159 -5 -3
-7 0 -6 8 2 7 -2 12 -8 11 -6 -1 -29 17 -50 40 -21 23 -29 33 -16 23 43 -37
21 -4 -50 74 -40 43 -75 77 -79 74 -4 -2 -11 1 -15 7 -5 8 -3 9 7 4 8 -5 -12
21 -45 58 -32 37 -62 65 -65 62 -4 -2 -28 17 -52 43 -24 26 -32 36 -16 23 15
-14 27 -21 27 -16 0 10 -111 128 -125 134 -5 2 10 -18 35 -45 44 -48 43 -48
-13 6 -53 50 -77 79 -42 50 8 -7 15 -8 15 -3 0 5 -21 29 -47 53 -26 25 -37 32
-23 15 23 -27 21 -27 -13 4 -36 34 -52 56 -22 31 8 -7 15 -9 15 -4 0 5 -51 61
-113 125 -61 64 -101 102 -87 85 20 -25 16 -23 -18 9 -40 37 -59 61 -27 35 8
-7 15 -8 15 -3 0 5 -10 18 -22 29 -22 19 -51 19 -1208 16z"/>
</g>
</svg>
