<?xml version="1.0" standalone="no"?>
<!DOCTYPE svg PUBLIC "-//W3C//DTD SVG 20010904//EN"
 "http://www.w3.org/TR/2001/REC-SVG-20010904/DTD/svg10.dtd">
<svg version="1.0" xmlns="http://www.w3.org/2000/svg"
 width="2712.000000pt" height="3079.000000pt" viewBox="0 0 2712.000000 3079.000000"
 preserveAspectRatio="xMidYMid meet">
<metadata>
Created by potrace 1.15, written by Peter Selinger 2001-2017
</metadata>
<g transform="translate(0.000000,3079.000000) scale(0.100000,-0.100000)"
fill="#000000" stroke="none">
<path d="M7517 22493 c-3579 -3909 -6506 -7110 -6505 -7114 2 -4 2930 -3205
6508 -7113 l6505 -7105 5523 -1 c3037 0 5522 3 5522 8 0 4 -2923 3200 -6496
7102 -3573 3902 -6498 7100 -6501 7107 -2 6 2921 3207 6496 7112 3576 3905
6501 7103 6501 7106 0 3 -2485 5 -5523 5 l-5523 0 -6507 -7107z"/>
</g>
</svg>
